:SAMPLES-PER-SECOND 30
:FRAME-RANGE 1-1086
:FULLY-SPECIFIED
:DEGREES
917
root  16.5905 38.8593 -120.785 -172.986 -27.4705 175.943
RightUpLeg  -32.9548 -18.9203 5.26632
RightLeg  21.371 -5.97618 -2.78126
RightFoot  -3.36616 -1.16928 16.3394
RightToes  -5.8209e-011 0 -3.6325e-017
Spine  8.15041 -1.45431 -6.2463
Spine1  4.13855 -1.85428 1.69128
HEad  16.8531 -2.57712 1.40784
LeftShoulder1  2.05338 -2.28965 -29.3908
LeftArm  16.3341 -15.7677 -27.0302
LeftForeArm  -14.8091 -48.8722 -13.8709
LeftHand  0.421561 2.32976 -16.7671
RightShoulder  7.73807 11.2535 45.8749
RightArm  6.29446 -0.803107 11.5696
RightForeArm  -15.364 56.9613 18.8264
RightHand  1.01345 1.11863 17.8719
LeftUpLeg  -16.5835 19.5926 -6.67106
LeftLeg  23.3437 1.44106 0.955555
LeftFoot  -13.0453 0.0506925 -1.85184
LeftToes  5.72949e-011 5.22586e-011 2.45399e-011
918
root  15.8737 38.7974 -121.352 -172.027 -26.6091 174.897
RightUpLeg  -30.9873 -18.4954 4.60887
RightLeg  10.3436 -11.0727 1.04243
RightFoot  -2.3312 -1.24094 15.4598
RightToes  -5.8209e-011 0 -3.6325e-017
Spine  8.06558 -1.65679 -6.37223
Spine1  4.26822 -2.02321 1.5281
HEad  16.7071 -2.80978 1.41652
LeftShoulder1  2.09732 -2.4204 -29.3507
LeftArm  17.0113 -16.8918 -27.1993
LeftForeArm  -15.6536 -47.8843 -13.4505
LeftHand  0.435006 2.2613 -16.8776
RightShoulder  7.8865 11.5562 45.8109
RightArm  6.23007 -0.249277 11.5213
RightForeArm  -15.618 56.5765 18.5565
RightHand  1.01805 1.20231 17.7174
LeftUpLeg  -15.4647 20.0262 -8.07834
LeftLeg  23.0097 1.87043 1.129
LeftFoot  -14.5088 0.0244637 -2.26103
LeftToes  5.72949e-011 5.22586e-011 2.45399e-011
919
root  15.1222 38.6313 -122.066 -171.358 -25.6648 173.7
RightUpLeg  -27.1111 -7.74925 -2.42647
RightLeg  -0.644492 -27.3185 7.64323
RightFoot  -1.22357 -1.28768 14.3813
RightToes  -5.8209e-011 0 -3.6325e-017
Spine  7.73264 -1.76423 -6.53614
Spine1  4.66362 -1.9944 1.20611
HEad  16.8312 -2.73449 0.986841
LeftShoulder1  2.15588 -2.5516 -29.5558
LeftArm  17.8797 -18.082 -27.4888
LeftForeArm  -16.1066 -46.5844 -12.8861
LeftHand  0.529096 1.63979 -16.8298
RightShoulder  7.97959 11.8202 45.5417
RightArm  6.00961 0.255125 11.5428
RightForeArm  -15.7303 56.0607 18.1887
RightHand  1.04542 1.38483 17.6837
LeftUpLeg  -13.9546 20.926 -9.37791
LeftLeg  23.2476 1.85178 1.05603
LeftFoot  -16.232 0.0170404 -1.87975
LeftToes  5.72949e-011 5.22586e-011 2.45399e-011
920
root  14.3169 38.3765 -122.864 -171.005 -25.0717 172.289
RightUpLeg  -26.114 -7.11081 -3.40179
RightLeg  -4.39771 -29.242 9.15928
RightFoot  -0.368731 -1.38137 14.2873
RightToes  -5.8209e-011 0 -3.6325e-017
Spine  7.56761 -2.03485 -6.58183
Spine1  4.98915 -2.07579 0.699907
HEad  16.9567 -2.82977 0.513412
LeftShoulder1  2.22101 -2.69392 -29.7944
LeftArm  18.6959 -19.1067 -27.8726
LeftForeArm  -17.2299 -45.3513 -12.4184
LeftHand  0.522682 1.7013 -16.9244
RightShoulder  8.05461 12.1012 45.1243
RightArm  5.84193 0.766869 11.6539
RightForeArm  -15.7821 55.382 17.7154
RightHand  1.07471 1.63159 17.5164
LeftUpLeg  -11.9585 21.3311 -10.7014
LeftLeg  23.8114 1.97281 1.1503
LeftFoot  -18.3217 0.00624223 -1.69889
LeftToes  5.72949e-011 5.22586e-011 2.45399e-011
921
root  13.5012 38.1069 -123.717 -171.052 -24.2571 171.568
RightUpLeg  -25.2077 -7.12975 -3.5778
RightLeg  -4.15203 -28.8371 8.73785
RightFoot  1.78031 -1.70668 14.8689
RightToes  -5.8209e-011 0 -3.6325e-017
Spine  7.62644 -2.0854 -5.76665
Spine1  5.35154 -2.06944 0.303224
HEad  16.961 -3.10081 -0.0117437
LeftShoulder1  2.24868 -2.74093 -29.9709
LeftArm  19.4535 -19.8217 -28.492
LeftForeArm  -17.8519 -44.2204 -11.9869
LeftHand  0.558012 1.44557 -16.8041
RightShoulder  8.18221 12.4862 44.7154
RightArm  5.10083 1.47631 11.9518
RightForeArm  -15.8338 53.8747 16.7251
RightHand  1.14288 1.83395 18.0811
LeftUpLeg  -9.92868 22.1008 -11.3642
LeftLeg  24.6199 2.01884 1.36958
LeftFoot  -20.5968 -0.0234485 -1.81587
LeftToes  5.72949e-011 5.22586e-011 2.45399e-011
922
root  12.7393 37.9838 -124.54 -171.561 -23.6325 172.181
RightUpLeg  -25.1709 -7.42677 -2.6431
RightLeg  -1.03165 -27.7853 7.71485
RightFoot  2.49746 -0.99622 8.33583
RightToes  -5.8209e-011 0 -3.6325e-017
Spine  8.16385 -1.9984 -3.2271
Spine1  5.85578 -2.15098 0.284617
HEad  16.8226 -3.43761 -0.504718
LeftShoulder1  2.27861 -2.78664 -30.1885
LeftArm  20.1524 -20.3682 -29.0599
LeftForeArm  -18.3165 -43.2373 -11.6231
LeftHand  0.584872 1.27303 -16.8164
RightShoulder  8.18924 12.6922 44.1574
RightArm  5.08176 1.77836 11.8985
RightForeArm  -15.4632 53.6224 16.5418
RightHand  1.17238 2.08407 17.906
LeftUpLeg  -7.95675 22.5665 -10.6503
LeftLeg  25.1015 2.41826 1.58852
LeftFoot  -22.3117 -0.118263 -2.6253
LeftToes  5.72949e-011 5.22586e-011 2.45399e-011
923
root  12.0738 37.9195 -125.3 -171.981 -21.757 174.002
RightUpLeg  -28.0561 -6.34984 -0.055013
RightLeg  4.46624 -27.3334 5.11778
RightFoot  6.95962 1.31476 -7.8475
RightToes  -5.8209e-011 0 -3.6325e-017
Spine  9.51078 -1.31444 0.689425
Spine1  5.62474 -1.41553 0.00170728
HEad  16.4602 -3.88821 -0.869757
LeftShoulder1  2.31333 -2.77823 -30.7967
LeftArm  20.8387 -21.2487 -29.1937
LeftForeArm  -18.5713 -42.3765 -11.3075
LeftHand  0.635618 0.928749 -16.7649
RightShoulder  8.26399 12.9501 43.844
RightArm  4.86672 2.26302 11.6883
RightForeArm  -15.3268 53.2444 16.2999
RightHand  1.20743 2.40361 17.6604
LeftUpLeg  -8.02375 23.2328 -9.17569
LeftLeg  27.735 3.29712 2.23088
LeftFoot  -22.7967 -0.328307 -4.63481
LeftToes  5.72949e-011 5.22586e-011 2.45399e-011
924
root  11.3948 37.766 -126.025 -171.647 -20.1539 174.837
RightUpLeg  -32.3588 -10.4587 4.59014
RightLeg  13.2552 -20.5214 -0.718898
RightFoot  5.6879 1.70894 -11.1091
RightToes  -5.8209e-011 0 -3.6325e-017
Spine  11.3511 -1.29714 3.63032
Spine1  4.82577 -0.906219 -1.09269
HEad  14.8565 -3.78743 -1.11707
LeftShoulder1  2.33992 -2.80299 -31.0764
LeftArm  20.5409 -22.0583 -29.3891
LeftForeArm  -19.0565 -41.3562 -10.9557
LeftHand  0.657732 0.767052 -16.7008
RightShoulder  8.9579 14.36 43.7559
RightArm  3.74499 2.71148 11.7096
RightForeArm  -15.3169 52.1945 15.6773
RightHand  1.25848 2.69954 17.7108
LeftUpLeg  -10.5014 24.6982 -8.63458
LeftLeg  34.1561 3.11093 2.63483
LeftFoot  -21.8523 -0.693167 -8.94452
LeftToes  5.72949e-011 5.22586e-011 2.45399e-011
925
root  10.851 37.6008 -126.576 -171.049 -20.1201 175.198
RightUpLeg  -36.0431 -18.1595 9.31887
RightLeg  18.5921 -11.5392 -2.41242
RightFoot  3.21258 1.38821 -10.6581
RightToes  -5.8209e-011 0 -3.6325e-017
Spine  12.7133 -1.81575 4.97467
Spine1  5.55549 -1.50148 -0.420194
HEad  12.6674 -3.5557 -1.60297
LeftShoulder1  2.39419 -2.97404 -30.935
LeftArm  19.9271 -23.8541 -30.1106
LeftForeArm  -19.8958 -39.1653 -10.2316
LeftHand  0.737092 0.240268 -16.684
RightShoulder  9.82872 16.2445 43.3855
RightArm  2.50481 4.13026 11.6816
RightForeArm  -15.1718 50.7941 14.8896
RightHand  1.33722 3.37526 17.3248
LeftUpLeg  -15.3962 25.4165 -8.33189
LeftLeg  43.4378 2.73776 3.17808
LeftFoot  -16.6926 -0.53918 -13.6164
LeftToes  5.72949e-011 5.22586e-011 2.45399e-011
926
root  10.496 37.437 -127.164 -170.391 -18.806 176.382
RightUpLeg  -38.2597 -19.9162 12.1672
RightLeg  21.6789 -8.08859 -2.49489
RightFoot  1.35652 1.21922 -10.8308
RightToes  -5.8209e-011 0 -3.6325e-017
Spine  13.9538 -1.17651 5.82567
Spine1  5.89971 -1.19715 1.02531
HEad  11.5666 -3.66223 -1.76784
LeftShoulder1  2.46462 -3.41862 -29.5643
LeftArm  20.4136 -25.5612 -32.0939
LeftForeArm  -20.8735 -36.2276 -9.33216
LeftHand  0.844856 -0.555109 -16.4336
RightShoulder  10.3867 17.5198 43.0285
RightArm  1.45554 5.68846 11.9617
RightForeArm  -15.2036 48.9475 13.9445
RightHand  1.40117 3.84562 17.2018
LeftUpLeg  -21.7655 28.3116 -6.87531
LeftLeg  53.0575 1.4298 2.52145
LeftFoot  -7.60279 0.550085 -15.3874
LeftToes  5.72949e-011 5.22586e-011 2.45399e-011
927
root  10.1545 37.1223 -127.583 -169.422 -18.3026 177.719
RightUpLeg  -41.2638 -20.2199 14.5156
RightLeg  25.5111 -6.71009 -3.23576
RightFoot  -0.791801 0.982223 -10.6545
RightToes  -5.8209e-011 0 -3.6325e-017
Spine  15.6166 -0.935313 7.38993
Spine1  5.23645 -1.21701 1.96478
HEad  10.7556 -3.94637 -1.41863
LeftShoulder1  2.50924 -3.62394 -29.1587
LeftArm  21.5852 -28.2034 -32.4081
LeftForeArm  -22.7957 -33.868 -8.71667
LeftHand  0.892314 -0.833555 -16.5404
RightShoulder  10.7896 18.39 42.8992
RightArm  0.636202 7.5451 12.3999
RightForeArm  -15.6196 47.1608 13.127
RightHand  1.41953 3.99263 17.1462
LeftUpLeg  -28.5556 29.0498 -5.78897
LeftLeg  60.6577 0.466246 1.47863
LeftFoot  -2.04105 0.895498 -10.8357
LeftToes  5.72949e-011 5.22586e-011 2.45399e-011
928
root  9.79403 37.0836 -128.003 -168.368 -17.563 178.29
RightUpLeg  -42.4675 -19.5829 15.1184
RightLeg  26.9191 -6.17006 -3.57323
RightFoot  -1.85935 0.814471 -9.93674
RightToes  -5.8209e-011 0 -3.6325e-017
Spine  17.2887 -0.948461 7.92112
Spine1  4.86863 -1.27053 2.13284
HEad  8.98929 -3.68913 -1.40946
LeftShoulder1  2.45502 -3.70634 -27.9772
LeftArm  21.8656 -30.6766 -33.0321
LeftForeArm  -24.2602 -31.8878 -8.2232
LeftHand  0.925172 -1.01963 -16.6269
RightShoulder  11.3527 19.7508 42.4442
RightArm  0.0168496 9.82387 13.0235
RightForeArm  -16.3963 45.0364 12.2503
RightHand  1.46979 4.40664 16.9821
LeftUpLeg  -34.1912 29.0221 -5.22099
LeftLeg  64.8289 0.117871 0.943302
LeftFoot  -3.04814 0.757579 -10.1787
LeftToes  5.72949e-011 5.22586e-011 2.45399e-011
